<svg width="84" height="151" viewBox="0 0 84 151" fill="none" xmlns="http://www.w3.org/2000/svg">
<path d="M46.6846 81.3904C35.525 79.5038 33.0154 71.8839 33.1556 68.3097C58.0003 66.2559 64.2043 84.5089 64.2007 93.8921C63.0118 90.511 57.8442 83.277 46.6846 81.3904Z" fill="#96F200"/>
<path d="M48.5503 77.0767C37.3576 75.3982 34.8869 72.0668 32.7939 68.3852C57.5961 65.8693 64.1388 84.0036 64.3099 93.3852C63.0583 90.0268 59.7431 78.7552 48.5503 77.0767Z" fill="url(#paint0_radial_17_289)"/>
<path d="M54.7971 51.2C39.0169 50.8585 33.5817 60.6379 32.8367 65.5703C66.3289 74.8968 79.6119 51.5215 82.0669 38.6681C79.552 42.9877 70.5773 51.5415 54.7971 51.2Z" fill="#96F200"/>
<path d="M56.2217 57.5977C40.4506 56.9626 36.193 60.8779 32.361 65.372C65.6738 75.3204 79.3897 52.1965 82.0835 39.391C79.4887 43.663 71.9928 58.2329 56.2217 57.5977Z" fill="url(#paint1_radial_17_289)"/>
<g filter="url(#filter0_di_17_289)">
<path d="M32.9096 51.6438C33.3645 30.1531 20.3777 -8.64588 46.8838 9.61806C73.3899 27.882 55.4529 45.373 32.9096 51.6438Z" fill="#FE7D94"/>
<path d="M32.9096 51.6438C33.3645 30.1531 20.3777 -8.64588 46.8838 9.61806C73.3899 27.882 55.4529 45.373 32.9096 51.6438Z" fill="url(#paint2_radial_17_289)" fill-opacity="0.2"/>
</g>
<g filter="url(#filter1_di_17_289)">
<path d="M31.7418 52.6438C31.2869 31.1531 44.2737 -7.64588 17.7675 10.6181C-8.73858 28.882 9.19847 46.373 31.7418 52.6438Z" fill="#FE7D94"/>
<path d="M31.7418 52.6438C31.2869 31.1531 44.2737 -7.64588 17.7675 10.6181C-8.73858 28.882 9.19847 46.373 31.7418 52.6438Z" fill="url(#paint3_radial_17_289)" fill-opacity="0.2"/>
</g>
<path d="M47.4254 150.493C34.2254 119.293 31.9254 71.4926 32.4254 51.4926C27.6254 88.2926 36.092 132.826 40.9254 150.493H47.4254Z" fill="#77BF00"/>
<path d="M41.7321 125.493C41.7321 125.493 41.4204 126.555 41.0654 127.159C40.7278 127.734 40 128.493 40 128.493H43.4641C43.1856 126.913 42.752 126.312 41.7321 125.493Z" fill="#96F200"/>
<path d="M35.7321 133.493C35.7321 133.493 36.0437 134.555 36.3987 135.159C36.7363 135.734 37.4641 136.493 37.4641 136.493H34C34.2785 134.913 34.7121 134.312 35.7321 133.493Z" fill="#96F200"/>
<path d="M45.7321 138.493C45.7321 138.493 45.4204 139.555 45.0654 140.159C44.7278 140.734 44 141.493 44 141.493H47.4641C47.1856 139.913 46.752 139.312 45.7321 138.493Z" fill="#96F200"/>
<defs>
<filter id="filter0_di_17_289" x="28.9991" y="3.18078" width="32.2181" height="49.0255" filterUnits="userSpaceOnUse" color-interpolation-filters="sRGB">
<feFlood flood-opacity="0" result="BackgroundImageFix"/>
<feColorMatrix in="SourceAlpha" type="matrix" values="0 0 0 0 0 0 0 0 0 0 0 0 0 0 0 0 0 0 127 0" result="hardAlpha"/>
<feOffset dy="-0.562419"/>
<feGaussianBlur stdDeviation="0.562419"/>
<feComposite in2="hardAlpha" operator="out"/>
<feColorMatrix type="matrix" values="0 0 0 0 0.917647 0 0 0 0 0.145098 0 0 0 0 0.282353 0 0 0 1 0"/>
<feBlend mode="normal" in2="BackgroundImageFix" result="effect1_dropShadow_17_289"/>
<feBlend mode="normal" in="SourceGraphic" in2="effect1_dropShadow_17_289" result="shape"/>
<feColorMatrix in="SourceAlpha" type="matrix" values="0 0 0 0 0 0 0 0 0 0 0 0 0 0 0 0 0 0 127 0" result="hardAlpha"/>
<feOffset dy="5"/>
<feComposite in2="hardAlpha" operator="arithmetic" k2="-1" k3="1"/>
<feColorMatrix type="matrix" values="0 0 0 0 1 0 0 0 0 0.641667 0 0 0 0 0.706167 0 0 0 0.79 0"/>
<feBlend mode="normal" in2="shape" result="effect2_innerShadow_17_289"/>
</filter>
<filter id="filter1_di_17_289" x="3.43424" y="4.18078" width="32.2179" height="49.0255" filterUnits="userSpaceOnUse" color-interpolation-filters="sRGB">
<feFlood flood-opacity="0" result="BackgroundImageFix"/>
<feColorMatrix in="SourceAlpha" type="matrix" values="0 0 0 0 0 0 0 0 0 0 0 0 0 0 0 0 0 0 127 0" result="hardAlpha"/>
<feOffset dy="-0.562419"/>
<feGaussianBlur stdDeviation="0.562419"/>
<feComposite in2="hardAlpha" operator="out"/>
<feColorMatrix type="matrix" values="0 0 0 0 0.917647 0 0 0 0 0.145098 0 0 0 0 0.282353 0 0 0 1 0"/>
<feBlend mode="normal" in2="BackgroundImageFix" result="effect1_dropShadow_17_289"/>
<feBlend mode="normal" in="SourceGraphic" in2="effect1_dropShadow_17_289" result="shape"/>
<feColorMatrix in="SourceAlpha" type="matrix" values="0 0 0 0 0 0 0 0 0 0 0 0 0 0 0 0 0 0 127 0" result="hardAlpha"/>
<feOffset dy="5"/>
<feComposite in2="hardAlpha" operator="arithmetic" k2="-1" k3="1"/>
<feColorMatrix type="matrix" values="0 0 0 0 1 0 0 0 0 0.641667 0 0 0 0 0.706167 0 0 0 0.79 0"/>
<feBlend mode="normal" in2="shape" result="effect2_innerShadow_17_289"/>
</filter>
<radialGradient id="paint0_radial_17_289" cx="0" cy="0" r="1" gradientUnits="userSpaceOnUse" gradientTransform="translate(48.9453 80.7747) rotate(-105.692) scale(16.2962 12.1984)">
<stop stop-color="#77BF00"/>
<stop offset="1" stop-color="#77BF00" stop-opacity="0"/>
</radialGradient>
<radialGradient id="paint1_radial_17_289" cx="0" cy="0" r="1" gradientUnits="userSpaceOnUse" gradientTransform="translate(57.7321 52.636) rotate(116.528) scale(22.7266 17.0118)">
<stop stop-color="#77BF00"/>
<stop offset="1" stop-color="#77BF00" stop-opacity="0"/>
</radialGradient>
<radialGradient id="paint2_radial_17_289" cx="0" cy="0" r="1" gradientUnits="userSpaceOnUse" gradientTransform="translate(50.68 28.5631) rotate(149.47) scale(25.4646 20.063)">
<stop offset="0.697917" stop-color="#FE7D94"/>
<stop offset="1" stop-color="#EA2548"/>
</radialGradient>
<radialGradient id="paint3_radial_17_289" cx="0" cy="0" r="1" gradientUnits="userSpaceOnUse" gradientTransform="translate(13.9714 29.5631) rotate(30.5297) scale(25.4646 20.063)">
<stop offset="0.697917" stop-color="#FE7D94"/>
<stop offset="1" stop-color="#EA2548"/>
</radialGradient>
</defs>
</svg>
