<svg width="157" height="268" viewBox="0 0 157 268" fill="none" xmlns="http://www.w3.org/2000/svg">
<path d="M52.0004 136.78C36.6933 134.192 33.251 123.74 33.4432 118.837C67.5216 116.02 76.0313 141.057 76.0264 153.928C74.3957 149.29 67.3075 139.367 52.0004 136.78Z" fill="#96F200"/>
<path d="M54.5596 130.863C39.207 128.56 35.818 123.991 32.9472 118.941C66.9673 115.49 75.9416 140.364 76.1763 153.232C74.4595 148.626 69.9122 133.165 54.5596 130.863Z" fill="url(#paint0_radial_17_287)"/>
<g filter="url(#filter0_i_17_287)">
<path d="M78.4415 118.717C42.9671 68.8646 -15.5757 89.6316 26.9936 64.5609C69.5629 39.4901 78.4415 47.9723 78.4415 118.717Z" fill="#FE7D94"/>
<path d="M78.4415 118.717C42.9671 68.8646 -15.5757 89.6316 26.9936 64.5609C69.5629 39.4901 78.4415 47.9723 78.4415 118.717Z" fill="url(#paint1_radial_17_287)" fill-opacity="0.2"/>
</g>
<g filter="url(#filter1_i_17_287)">
<path d="M79.4075 130.937C38.2054 85.703 -17.4213 113.347 21.8309 83.3478C61.083 53.3484 70.9156 60.7035 79.4075 130.937Z" fill="#FE7D94"/>
<path d="M79.4075 130.937C38.2054 85.703 -17.4213 113.347 21.8309 83.3478C61.083 53.3484 70.9156 60.7035 79.4075 130.937Z" fill="url(#paint2_radial_17_287)" fill-opacity="0.2"/>
</g>
<g filter="url(#filter2_i_17_287)">
<path d="M76.2752 112.62C54.3818 55.4845 4.33255 76.4926 51.8158 62.8531C99.299 49.2135 93.9511 44.1183 76.2752 112.62Z" fill="#FE7D94"/>
<path d="M76.2752 112.62C54.3818 55.4845 4.33255 76.4926 51.8158 62.8531C99.299 49.2135 93.9511 44.1183 76.2752 112.62Z" fill="url(#paint3_radial_17_287)" fill-opacity="0.2"/>
</g>
<g filter="url(#filter3_i_17_287)">
<path d="M77.5609 131.291C65.4271 95.1119 26.7277 96.894 56.675 89.6485C86.6222 82.403 90.3832 89.074 77.5609 131.291Z" fill="#FE7D94"/>
<path d="M77.5609 131.291C65.4271 95.1119 26.7277 96.894 56.675 89.6485C86.6222 82.403 90.3832 89.074 77.5609 131.291Z" fill="url(#paint4_radial_17_287)" fill-opacity="0.2"/>
</g>
<g filter="url(#filter4_d_17_287)">
<path d="M78.5957 112.133C97.3823 69.0913 144.632 75.46 108.702 63.3398C72.7727 51.2197 67.4409 58.9912 78.5957 112.133Z" fill="#FE7D94"/>
<path d="M78.5957 112.133C97.3823 69.0913 144.632 75.46 108.702 63.3398C72.7727 51.2197 67.4409 58.9912 78.5957 112.133Z" fill="url(#paint5_radial_17_287)" fill-opacity="0.2"/>
</g>
<g filter="url(#filter5_i_17_287)">
<path d="M78 116.717C113.474 66.8646 172.017 87.6316 129.448 62.5609C86.8786 37.4901 78 45.9723 78 116.717Z" fill="#FE7D94"/>
<path d="M78 116.717C113.474 66.8646 172.017 87.6316 129.448 62.5609C86.8786 37.4901 78 45.9723 78 116.717Z" fill="url(#paint6_radial_17_287)" fill-opacity="0.2"/>
</g>
<g filter="url(#filter6_ii_17_287)">
<path d="M77.0339 128.937C118.236 83.703 173.863 111.347 134.611 81.3478C95.3584 51.3484 85.5258 58.7035 77.0339 128.937Z" fill="#FE7D94"/>
<path d="M77.0339 128.937C118.236 83.703 173.863 111.347 134.611 81.3478C95.3584 51.3484 85.5258 58.7035 77.0339 128.937Z" fill="url(#paint7_radial_17_287)" fill-opacity="0.2"/>
</g>
<g filter="url(#filter7_di_17_287)">
<path d="M78.8806 129.291C91.0144 93.1119 129.714 94.894 99.7666 87.6485C69.8193 80.403 66.0583 87.074 78.8806 129.291Z" fill="#FE7D94"/>
<path d="M78.8806 129.291C91.0144 93.1119 129.714 94.894 99.7666 87.6485C69.8193 80.403 66.0583 87.074 78.8806 129.291Z" fill="url(#paint8_radial_17_287)" fill-opacity="0.2"/>
</g>
<path d="M110.129 131.309C88.4839 130.84 81.0287 144.254 80.0068 151.02C125.947 163.813 144.166 131.75 147.534 114.119C144.084 120.044 131.774 131.777 110.129 131.309Z" fill="#96F200"/>
<path d="M112.083 140.084C90.4504 139.213 84.6104 144.584 79.3543 150.748C125.048 164.394 143.861 132.676 147.556 115.111C143.997 120.971 133.715 140.956 112.083 140.084Z" fill="url(#paint9_radial_17_287)"/>
<path d="M100.017 267.504C81.9107 224.709 78.7559 159.143 79.4417 131.71C72.8578 182.187 84.4711 243.272 91.1007 267.504H100.017Z" fill="#77BF00"/>
<path d="M92.2072 232.537C92.2072 232.537 91.7798 233.994 91.2928 234.823C90.8298 235.612 89.8315 236.652 89.8315 236.652H94.583C94.201 234.486 93.6062 233.662 92.2072 232.537Z" fill="#96F200"/>
<path d="M83.9773 243.51C83.9773 243.51 84.4048 244.967 84.8918 245.797C85.3548 246.585 86.3531 247.625 86.3531 247.625H81.6016C81.9836 245.459 82.5783 244.635 83.9773 243.51Z" fill="#96F200"/>
<path d="M97.6939 251.044C97.6939 251.044 97.2665 252.501 96.7795 253.33C96.3165 254.119 95.3181 255.159 95.3181 255.159H100.07C99.6877 252.993 99.0929 252.169 97.6939 251.044Z" fill="#96F200"/>
<defs>
<filter id="filter0_i_17_287" x="12.0842" y="51.7336" width="66.3573" height="66.9838" filterUnits="userSpaceOnUse" color-interpolation-filters="sRGB">
<feFlood flood-opacity="0" result="BackgroundImageFix"/>
<feBlend mode="normal" in="SourceGraphic" in2="BackgroundImageFix" result="shape"/>
<feColorMatrix in="SourceAlpha" type="matrix" values="0 0 0 0 0 0 0 0 0 0 0 0 0 0 0 0 0 0 127 0" result="hardAlpha"/>
<feOffset dy="-6"/>
<feComposite in2="hardAlpha" operator="arithmetic" k2="-1" k3="1"/>
<feColorMatrix type="matrix" values="0 0 0 0 0.917647 0 0 0 0 0.145098 0 0 0 0 0.282353 0 0 0 0.27 0"/>
<feBlend mode="normal" in2="shape" result="effect1_innerShadow_17_287"/>
</filter>
<filter id="filter1_i_17_287" x="8.45337" y="66.6621" width="70.9541" height="64.2751" filterUnits="userSpaceOnUse" color-interpolation-filters="sRGB">
<feFlood flood-opacity="0" result="BackgroundImageFix"/>
<feBlend mode="normal" in="SourceGraphic" in2="BackgroundImageFix" result="shape"/>
<feColorMatrix in="SourceAlpha" type="matrix" values="0 0 0 0 0 0 0 0 0 0 0 0 0 0 0 0 0 0 127 0" result="hardAlpha"/>
<feOffset dy="-6"/>
<feComposite in2="hardAlpha" operator="arithmetic" k2="-1" k3="1"/>
<feColorMatrix type="matrix" values="0 0 0 0 0.917647 0 0 0 0 0.145098 0 0 0 0 0.282353 0 0 0 0.27 0"/>
<feBlend mode="normal" in2="shape" result="effect1_innerShadow_17_287"/>
</filter>
<filter id="filter2_i_17_287" x="32.0201" y="54.4584" width="57.0027" height="58.1612" filterUnits="userSpaceOnUse" color-interpolation-filters="sRGB">
<feFlood flood-opacity="0" result="BackgroundImageFix"/>
<feBlend mode="normal" in="SourceGraphic" in2="BackgroundImageFix" result="shape"/>
<feColorMatrix in="SourceAlpha" type="matrix" values="0 0 0 0 0 0 0 0 0 0 0 0 0 0 0 0 0 0 127 0" result="hardAlpha"/>
<feOffset dy="-6"/>
<feComposite in2="hardAlpha" operator="arithmetic" k2="-1" k3="1"/>
<feColorMatrix type="matrix" values="0 0 0 0 0.917647 0 0 0 0 0.145098 0 0 0 0 0.282353 0 0 0 0.27 0"/>
<feBlend mode="normal" in2="shape" result="effect1_innerShadow_17_287"/>
</filter>
<filter id="filter3_i_17_287" x="45.556" y="87.1172" width="38.9623" height="44.174" filterUnits="userSpaceOnUse" color-interpolation-filters="sRGB">
<feFlood flood-opacity="0" result="BackgroundImageFix"/>
<feBlend mode="normal" in="SourceGraphic" in2="BackgroundImageFix" result="shape"/>
<feColorMatrix in="SourceAlpha" type="matrix" values="0 0 0 0 0 0 0 0 0 0 0 0 0 0 0 0 0 0 127 0" result="hardAlpha"/>
<feOffset dy="-6"/>
<feComposite in2="hardAlpha" operator="arithmetic" k2="-1" k3="1"/>
<feColorMatrix type="matrix" values="0 0 0 0 0.917647 0 0 0 0 0.145098 0 0 0 0 0.282353 0 0 0 0.27 0"/>
<feBlend mode="normal" in2="shape" result="effect1_innerShadow_17_287"/>
</filter>
<filter id="filter4_d_17_287" x="69.3888" y="58.3679" width="56.433" height="61.7647" filterUnits="userSpaceOnUse" color-interpolation-filters="sRGB">
<feFlood flood-opacity="0" result="BackgroundImageFix"/>
<feColorMatrix in="SourceAlpha" type="matrix" values="0 0 0 0 0 0 0 0 0 0 0 0 0 0 0 0 0 0 127 0" result="hardAlpha"/>
<feOffset dy="4"/>
<feGaussianBlur stdDeviation="2"/>
<feComposite in2="hardAlpha" operator="out"/>
<feColorMatrix type="matrix" values="0 0 0 0 0.917647 0 0 0 0 0.145098 0 0 0 0 0.282353 0 0 0 1 0"/>
<feBlend mode="normal" in2="BackgroundImageFix" result="effect1_dropShadow_17_287"/>
<feBlend mode="normal" in="SourceGraphic" in2="effect1_dropShadow_17_287" result="shape"/>
</filter>
<filter id="filter5_i_17_287" x="78" y="49.7336" width="66.3573" height="66.9838" filterUnits="userSpaceOnUse" color-interpolation-filters="sRGB">
<feFlood flood-opacity="0" result="BackgroundImageFix"/>
<feBlend mode="normal" in="SourceGraphic" in2="BackgroundImageFix" result="shape"/>
<feColorMatrix in="SourceAlpha" type="matrix" values="0 0 0 0 0 0 0 0 0 0 0 0 0 0 0 0 0 0 127 0" result="hardAlpha"/>
<feOffset dy="7"/>
<feComposite in2="hardAlpha" operator="arithmetic" k2="-1" k3="1"/>
<feColorMatrix type="matrix" values="0 0 0 0 0.917647 0 0 0 0 0.145098 0 0 0 0 0.282353 0 0 0 0.38 0"/>
<feBlend mode="normal" in2="shape" result="effect1_innerShadow_17_287"/>
</filter>
<filter id="filter6_ii_17_287" x="77.0339" y="64.6621" width="70.9541" height="64.2751" filterUnits="userSpaceOnUse" color-interpolation-filters="sRGB">
<feFlood flood-opacity="0" result="BackgroundImageFix"/>
<feBlend mode="normal" in="SourceGraphic" in2="BackgroundImageFix" result="shape"/>
<feColorMatrix in="SourceAlpha" type="matrix" values="0 0 0 0 0 0 0 0 0 0 0 0 0 0 0 0 0 0 127 0" result="hardAlpha"/>
<feOffset dy="-6"/>
<feComposite in2="hardAlpha" operator="arithmetic" k2="-1" k3="1"/>
<feColorMatrix type="matrix" values="0 0 0 0 0.917647 0 0 0 0 0.145098 0 0 0 0 0.282353 0 0 0 0.33 0"/>
<feBlend mode="normal" in2="shape" result="effect1_innerShadow_17_287"/>
<feColorMatrix in="SourceAlpha" type="matrix" values="0 0 0 0 0 0 0 0 0 0 0 0 0 0 0 0 0 0 127 0" result="hardAlpha"/>
<feOffset dy="1"/>
<feComposite in2="hardAlpha" operator="arithmetic" k2="-1" k3="1"/>
<feColorMatrix type="matrix" values="0 0 0 0 0.917647 0 0 0 0 0.145098 0 0 0 0 0.282353 0 0 0 0.42 0"/>
<feBlend mode="normal" in2="effect1_innerShadow_17_287" result="effect2_innerShadow_17_287"/>
</filter>
<filter id="filter7_di_17_287" x="67.9232" y="85.1172" width="46.9623" height="52.174" filterUnits="userSpaceOnUse" color-interpolation-filters="sRGB">
<feFlood flood-opacity="0" result="BackgroundImageFix"/>
<feColorMatrix in="SourceAlpha" type="matrix" values="0 0 0 0 0 0 0 0 0 0 0 0 0 0 0 0 0 0 127 0" result="hardAlpha"/>
<feOffset dy="4"/>
<feGaussianBlur stdDeviation="2"/>
<feComposite in2="hardAlpha" operator="out"/>
<feColorMatrix type="matrix" values="0 0 0 0 0 0 0 0 0 0 0 0 0 0 0 0 0 0 0.25 0"/>
<feBlend mode="normal" in2="BackgroundImageFix" result="effect1_dropShadow_17_287"/>
<feBlend mode="normal" in="SourceGraphic" in2="effect1_dropShadow_17_287" result="shape"/>
<feColorMatrix in="SourceAlpha" type="matrix" values="0 0 0 0 0 0 0 0 0 0 0 0 0 0 0 0 0 0 127 0" result="hardAlpha"/>
<feOffset dx="1" dy="2"/>
<feGaussianBlur stdDeviation="1.5"/>
<feComposite in2="hardAlpha" operator="arithmetic" k2="-1" k3="1"/>
<feColorMatrix type="matrix" values="0 0 0 0 0.917647 0 0 0 0 0.145098 0 0 0 0 0.282353 0 0 0 0.28 0"/>
<feBlend mode="normal" in2="shape" result="effect2_innerShadow_17_287"/>
</filter>
<radialGradient id="paint0_radial_17_287" cx="0" cy="0" r="1" gradientUnits="userSpaceOnUse" gradientTransform="translate(55.1013 135.935) rotate(-105.692) scale(22.3528 16.732)">
<stop stop-color="#77BF00"/>
<stop offset="1" stop-color="#77BF00" stop-opacity="0"/>
</radialGradient>
<radialGradient id="paint1_radial_17_287" cx="0" cy="0" r="1" gradientUnits="userSpaceOnUse" gradientTransform="translate(48.3247 21.8391) rotate(82.3356) scale(85.085 31.2887)">
<stop offset="0.697917" stop-color="#FE7D94"/>
<stop offset="1" stop-color="#EA2548"/>
</radialGradient>
<radialGradient id="paint2_radial_17_287" cx="0" cy="0" r="1" gradientUnits="userSpaceOnUse" gradientTransform="translate(37.8796 38.3744) rotate(75.4414) scale(85.085 31.2887)">
<stop offset="0.697917" stop-color="#FE7D94"/>
<stop offset="1" stop-color="#EA2548"/>
</radialGradient>
<radialGradient id="paint3_radial_17_287" cx="0" cy="0" r="1" gradientUnits="userSpaceOnUse" gradientTransform="translate(71.319 11.2891) rotate(96.8044) scale(85.085 31.2887)">
<stop offset="0.697917" stop-color="#FE7D94"/>
<stop offset="1" stop-color="#EA2548"/>
</radialGradient>
<radialGradient id="paint4_radial_17_287" cx="0" cy="0" r="1" gradientUnits="userSpaceOnUse" gradientTransform="translate(77.1475 68.0204) rotate(99.2302) scale(53.0648 19.5138)">
<stop offset="0.697917" stop-color="#FE7D94"/>
<stop offset="1" stop-color="#EA2548"/>
</radialGradient>
<radialGradient id="paint5_radial_17_287" cx="0" cy="0" r="1" gradientUnits="userSpaceOnUse" gradientTransform="translate(85.943 34.6121) rotate(85.8097) scale(65.3059 24.0152)">
<stop offset="0.697917" stop-color="#FE7D94"/>
<stop offset="1" stop-color="#EA2548"/>
</radialGradient>
<radialGradient id="paint6_radial_17_287" cx="0" cy="0" r="1" gradientUnits="userSpaceOnUse" gradientTransform="translate(108.117 19.8391) rotate(97.6644) scale(85.085 31.2887)">
<stop offset="0.697917" stop-color="#FE7D94"/>
<stop offset="1" stop-color="#EA2548"/>
</radialGradient>
<radialGradient id="paint7_radial_17_287" cx="0" cy="0" r="1" gradientUnits="userSpaceOnUse" gradientTransform="translate(118.562 36.3744) rotate(104.559) scale(85.085 31.2887)">
<stop offset="0.697917" stop-color="#FE7D94"/>
<stop offset="1" stop-color="#EA2548"/>
</radialGradient>
<radialGradient id="paint8_radial_17_287" cx="0" cy="0" r="1" gradientUnits="userSpaceOnUse" gradientTransform="translate(79.294 66.0204) rotate(80.7698) scale(53.0648 19.5138)">
<stop offset="0.697917" stop-color="#FE7D94"/>
<stop offset="1" stop-color="#EA2548"/>
</radialGradient>
<radialGradient id="paint9_radial_17_287" cx="0" cy="0" r="1" gradientUnits="userSpaceOnUse" gradientTransform="translate(114.155 133.279) rotate(116.528) scale(31.1731 23.3343)">
<stop stop-color="#77BF00"/>
<stop offset="1" stop-color="#77BF00" stop-opacity="0"/>
</radialGradient>
</defs>
</svg>
