<svg width="88" height="154" viewBox="0 0 88 154" fill="none" xmlns="http://www.w3.org/2000/svg">
<path d="M29.4816 70.15C5.39698 66.0784 -0.0192367 49.633 0.283227 41.9193C53.9031 37.4867 67.2926 76.8803 67.2848 97.1311C64.719 89.8339 53.5662 74.2217 29.4816 70.15Z" fill="#96F200"/>
<path d="M52.5503 80.0767C41.3576 78.3982 38.8869 75.0668 36.7939 71.3852C61.5961 68.8693 68.1388 87.0036 68.3099 96.3852C67.0583 93.0268 63.7431 81.7552 52.5503 80.0767Z" fill="url(#paint0_radial_17_288)"/>
<path d="M43.3022 60.7935C18.8815 60.265 10.4704 75.3991 9.31741 83.0321C61.1481 97.4653 81.7042 61.2911 85.5034 41.3998C81.6116 48.0846 67.7228 61.3219 43.3022 60.7935Z" fill="#96F200"/>
<path d="M60.2217 60.5977C44.4506 59.9626 40.193 63.8779 36.361 68.372C69.6738 78.3204 83.3897 55.1965 86.0835 42.391C83.4887 46.663 75.9928 61.2329 60.2217 60.5977Z" fill="url(#paint1_radial_17_288)"/>
<g filter="url(#filter0_di_17_288)">
<path d="M50.5262 39.745C50.2026 24.4541 59.4427 -3.15163 40.5834 9.84332C21.7241 22.8383 34.4864 35.2833 50.5262 39.745Z" fill="#FE7D94"/>
<path d="M50.5262 39.745C50.2026 24.4541 59.4427 -3.15163 40.5834 9.84332C21.7241 22.8383 34.4864 35.2833 50.5262 39.745Z" fill="url(#paint2_radial_17_288)" fill-opacity="0.2"/>
</g>
<g filter="url(#filter1_di_17_288)">
<path d="M19.8519 45.5975C20.2535 26.6228 8.78719 -7.63367 32.1901 8.49198C55.5929 24.6176 39.7559 40.0609 19.8519 45.5975Z" fill="#FE7D94"/>
<path d="M19.8519 45.5975C20.2535 26.6228 8.78719 -7.63367 32.1901 8.49198C55.5929 24.6176 39.7559 40.0609 19.8519 45.5975Z" fill="url(#paint3_radial_17_288)" fill-opacity="0.2"/>
</g>
<g filter="url(#filter2_di_17_288)">
<path d="M29.4028 52.4543C37.4437 32.5193 39.0486 -8.36396 57.3626 18.1076C75.6766 44.5791 52.7053 54.5789 29.4028 52.4543Z" fill="#FE7D94"/>
<path d="M29.4028 52.4543C37.4437 32.5193 39.0486 -8.36396 57.3626 18.1076C75.6766 44.5791 52.7053 54.5789 29.4028 52.4543Z" fill="url(#paint4_radial_17_288)" fill-opacity="0.2"/>
</g>
<g filter="url(#filter3_di_17_288)">
<path d="M37.9422 52.9918C32.0943 32.3069 34.9002 -8.51145 13.8427 15.8346C-7.21481 40.1805 14.5463 52.5953 37.9422 52.9918Z" fill="#FE7D94"/>
<path d="M37.9422 52.9918C32.0943 32.3069 34.9002 -8.51145 13.8427 15.8346C-7.21481 40.1805 14.5463 52.5953 37.9422 52.9918Z" fill="url(#paint5_radial_17_288)" fill-opacity="0.2"/>
</g>
<path d="M51.4254 153.493C38.2254 122.293 35.9254 74.4926 36.4254 54.4926C31.6254 91.2926 40.092 135.826 44.9254 153.493H51.4254Z" fill="#77BF00"/>
<path d="M45.7321 128C45.7321 128 45.4204 129.062 45.0654 129.667C44.7278 130.241 44 131 44 131H47.4641C47.1856 129.421 46.752 128.82 45.7321 128Z" fill="#96F200"/>
<path d="M39.7321 136C39.7321 136 40.0437 137.062 40.3987 137.667C40.7363 138.241 41.4641 139 41.4641 139H38C38.2785 137.421 38.7121 136.82 39.7321 136Z" fill="#96F200"/>
<path d="M49.7321 141.493C49.7321 141.493 49.4204 142.555 49.0654 143.159C48.7278 143.734 48 144.493 48 144.493H51.4641C51.1856 142.913 50.752 142.312 49.7321 141.493Z" fill="#96F200"/>
<defs>
<filter id="filter0_di_17_288" x="30.3852" y="5.26312" width="22.9234" height="34.8821" filterUnits="userSpaceOnUse" color-interpolation-filters="sRGB">
<feFlood flood-opacity="0" result="BackgroundImageFix"/>
<feColorMatrix in="SourceAlpha" type="matrix" values="0 0 0 0 0 0 0 0 0 0 0 0 0 0 0 0 0 0 127 0" result="hardAlpha"/>
<feOffset dy="-0.400166"/>
<feGaussianBlur stdDeviation="0.400166"/>
<feComposite in2="hardAlpha" operator="out"/>
<feColorMatrix type="matrix" values="0 0 0 0 0.917647 0 0 0 0 0.145098 0 0 0 0 0.282353 0 0 0 1 0"/>
<feBlend mode="normal" in2="BackgroundImageFix" result="effect1_dropShadow_17_288"/>
<feBlend mode="normal" in="SourceGraphic" in2="effect1_dropShadow_17_288" result="shape"/>
<feColorMatrix in="SourceAlpha" type="matrix" values="0 0 0 0 0 0 0 0 0 0 0 0 0 0 0 0 0 0 127 0" result="hardAlpha"/>
<feOffset dy="3.55754"/>
<feComposite in2="hardAlpha" operator="arithmetic" k2="-1" k3="1"/>
<feColorMatrix type="matrix" values="0 0 0 0 1 0 0 0 0 0.641667 0 0 0 0 0.706167 0 0 0 0.79 0"/>
<feBlend mode="normal" in2="shape" result="effect2_innerShadow_17_288"/>
</filter>
<filter id="filter1_di_17_288" x="16.3992" y="2.80832" width="28.446" height="43.2858" filterUnits="userSpaceOnUse" color-interpolation-filters="sRGB">
<feFlood flood-opacity="0" result="BackgroundImageFix"/>
<feColorMatrix in="SourceAlpha" type="matrix" values="0 0 0 0 0 0 0 0 0 0 0 0 0 0 0 0 0 0 127 0" result="hardAlpha"/>
<feOffset dy="-0.496573"/>
<feGaussianBlur stdDeviation="0.496573"/>
<feComposite in2="hardAlpha" operator="out"/>
<feColorMatrix type="matrix" values="0 0 0 0 0.917647 0 0 0 0 0.145098 0 0 0 0 0.282353 0 0 0 1 0"/>
<feBlend mode="normal" in2="BackgroundImageFix" result="effect1_dropShadow_17_288"/>
<feBlend mode="normal" in="SourceGraphic" in2="effect1_dropShadow_17_288" result="shape"/>
<feColorMatrix in="SourceAlpha" type="matrix" values="0 0 0 0 0 0 0 0 0 0 0 0 0 0 0 0 0 0 127 0" result="hardAlpha"/>
<feOffset dy="4.41462"/>
<feComposite in2="hardAlpha" operator="arithmetic" k2="-1" k3="1"/>
<feColorMatrix type="matrix" values="0 0 0 0 1 0 0 0 0 0.641667 0 0 0 0 0.706167 0 0 0 0.79 0"/>
<feBlend mode="normal" in2="shape" result="effect2_innerShadow_17_288"/>
</filter>
<filter id="filter2_di_17_288" x="28.278" y="7.76941" width="36.8451" height="45.5237" filterUnits="userSpaceOnUse" color-interpolation-filters="sRGB">
<feFlood flood-opacity="0" result="BackgroundImageFix"/>
<feColorMatrix in="SourceAlpha" type="matrix" values="0 0 0 0 0 0 0 0 0 0 0 0 0 0 0 0 0 0 127 0" result="hardAlpha"/>
<feOffset dy="-0.562419"/>
<feGaussianBlur stdDeviation="0.562419"/>
<feComposite in2="hardAlpha" operator="out"/>
<feColorMatrix type="matrix" values="0 0 0 0 0.917647 0 0 0 0 0.145098 0 0 0 0 0.282353 0 0 0 1 0"/>
<feBlend mode="normal" in2="BackgroundImageFix" result="effect1_dropShadow_17_288"/>
<feBlend mode="normal" in="SourceGraphic" in2="effect1_dropShadow_17_288" result="shape"/>
<feColorMatrix in="SourceAlpha" type="matrix" values="0 0 0 0 0 0 0 0 0 0 0 0 0 0 0 0 0 0 127 0" result="hardAlpha"/>
<feOffset dy="5"/>
<feComposite in2="hardAlpha" operator="arithmetic" k2="-1" k3="1"/>
<feColorMatrix type="matrix" values="0 0 0 0 1 0 0 0 0 0.641667 0 0 0 0 0.706167 0 0 0 0.79 0"/>
<feBlend mode="normal" in2="shape" result="effect2_innerShadow_17_288"/>
</filter>
<filter id="filter3_di_17_288" x="4.19425" y="6.63189" width="34.8727" height="46.9223" filterUnits="userSpaceOnUse" color-interpolation-filters="sRGB">
<feFlood flood-opacity="0" result="BackgroundImageFix"/>
<feColorMatrix in="SourceAlpha" type="matrix" values="0 0 0 0 0 0 0 0 0 0 0 0 0 0 0 0 0 0 127 0" result="hardAlpha"/>
<feOffset dy="-0.562419"/>
<feGaussianBlur stdDeviation="0.562419"/>
<feComposite in2="hardAlpha" operator="out"/>
<feColorMatrix type="matrix" values="0 0 0 0 0.917647 0 0 0 0 0.145098 0 0 0 0 0.282353 0 0 0 1 0"/>
<feBlend mode="normal" in2="BackgroundImageFix" result="effect1_dropShadow_17_288"/>
<feBlend mode="normal" in="SourceGraphic" in2="effect1_dropShadow_17_288" result="shape"/>
<feColorMatrix in="SourceAlpha" type="matrix" values="0 0 0 0 0 0 0 0 0 0 0 0 0 0 0 0 0 0 127 0" result="hardAlpha"/>
<feOffset dy="5"/>
<feComposite in2="hardAlpha" operator="arithmetic" k2="-1" k3="1"/>
<feColorMatrix type="matrix" values="0 0 0 0 1 0 0 0 0 0.641667 0 0 0 0 0.706167 0 0 0 0.79 0"/>
<feBlend mode="normal" in2="shape" result="effect2_innerShadow_17_288"/>
</filter>
<radialGradient id="paint0_radial_17_288" cx="0" cy="0" r="1" gradientUnits="userSpaceOnUse" gradientTransform="translate(52.9453 83.7747) rotate(-105.692) scale(16.2962 12.1984)">
<stop stop-color="#77BF00"/>
<stop offset="1" stop-color="#77BF00" stop-opacity="0"/>
</radialGradient>
<radialGradient id="paint1_radial_17_288" cx="0" cy="0" r="1" gradientUnits="userSpaceOnUse" gradientTransform="translate(61.7321 55.636) rotate(116.528) scale(22.7266 17.0118)">
<stop stop-color="#77BF00"/>
<stop offset="1" stop-color="#77BF00" stop-opacity="0"/>
</radialGradient>
<radialGradient id="paint2_radial_17_288" cx="0" cy="0" r="1" gradientUnits="userSpaceOnUse" gradientTransform="translate(37.8824 23.3229) rotate(30.5297) scale(18.1183 14.275)">
<stop offset="0.697917" stop-color="#FE7D94"/>
<stop offset="1" stop-color="#EA2548"/>
</radialGradient>
<radialGradient id="paint3_radial_17_288" cx="0" cy="0" r="1" gradientUnits="userSpaceOnUse" gradientTransform="translate(35.5418 25.219) rotate(149.47) scale(22.4833 17.7141)">
<stop offset="0.697917" stop-color="#FE7D94"/>
<stop offset="1" stop-color="#EA2548"/>
</radialGradient>
<radialGradient id="paint4_radial_17_288" cx="0" cy="0" r="1" gradientUnits="userSpaceOnUse" gradientTransform="translate(54.199 37.1685) rotate(170.225) scale(25.4646 20.063)">
<stop offset="0.697917" stop-color="#FE7D94"/>
<stop offset="1" stop-color="#EA2548"/>
</radialGradient>
<radialGradient id="paint5_radial_17_288" cx="0" cy="0" r="1" gradientUnits="userSpaceOnUse" gradientTransform="translate(14.9358 35.1253) rotate(15.9557) scale(25.4646 20.063)">
<stop offset="0.697917" stop-color="#FE7D94"/>
<stop offset="1" stop-color="#EA2548"/>
</radialGradient>
</defs>
</svg>
