<svg width="96" height="96" viewBox="0 0 96 96" fill="none" xmlns="http://www.w3.org/2000/svg">
<path d="M36 44V40C36 33.36 38 28 48 28C58 28 60 33.36 60 40V44" stroke="#292D32" stroke-width="1.5" stroke-linecap="round" stroke-linejoin="round"/>
<path d="M48 58.4C49.3255 58.4 50.3999 57.3255 50.3999 56C50.3999 54.6745 49.3255 53.6 48 53.6C46.6745 53.6 45.6001 54.6745 45.6001 56C45.6001 57.3255 46.6745 58.4 48 58.4Z" stroke="#292D32" stroke-width="1.5" stroke-linecap="round" stroke-linejoin="round"/>
<path d="M58 68H38C30 68 28 66 28 58V54C28 46 30 44 38 44H58C66 44 68 46 68 54V58C68 66 66 68 58 68Z" stroke="#292D32" stroke-width="1.5" stroke-linecap="round" stroke-linejoin="round"/>
<path d="M48 88C70.0914 88 88 70.0914 88 48C88 25.9086 70.0914 8 48 8C25.9086 8 8 25.9086 8 48C8 70.0914 25.9086 88 48 88Z" stroke="#292D32" stroke-width="1.5" stroke-linecap="round" stroke-linejoin="round"/>
</svg>
