<svg width="96" height="90" viewBox="0 0 96 90" fill="none" xmlns="http://www.w3.org/2000/svg">
<path d="M41.96 8.36248L22 15.375C17.4 16.9875 13.64 22.0874 13.64 26.6999V54.5624C13.64 58.9874 16.7601 64.7999 20.5601 67.4624L37.76 79.5C43.4 83.475 52.6799 83.475 58.3199 79.5L75.52 67.4624C79.32 64.7999 82.4399 58.9874 82.4399 54.5624V26.6999C82.4399 22.0874 78.68 16.9875 74.08 15.375L54.12 8.36248C50.72 7.19998 45.28 7.19998 41.96 8.36248Z" stroke="#292D32" stroke-width="1.5" stroke-linecap="round" stroke-linejoin="round"/>
<path d="M48 40.9501C47.84 40.9501 47.64 40.9501 47.48 40.9501C43.72 40.8376 40.72 37.9125 40.72 34.35C40.72 30.7125 43.88 27.75 47.76 27.75C51.64 27.75 54.8 30.7125 54.8 34.35C54.76 37.95 51.76 40.8376 48 40.9501Z" stroke="#292D32" stroke-width="1.5" stroke-linecap="round" stroke-linejoin="round"/>
<path d="M40.04 51.4501C36.2 53.8501 36.2 57.7875 40.04 60.1875C44.4 62.925 51.56 62.925 55.92 60.1875C59.76 57.7875 59.76 53.8501 55.92 51.4501C51.6 48.7126 44.44 48.7126 40.04 51.4501Z" stroke="#292D32" stroke-width="1.5" stroke-linecap="round" stroke-linejoin="round"/>
</svg>
