<svg width="24" height="24" viewBox="0 0 24 24" fill="none" xmlns="http://www.w3.org/2000/svg">
<rect width="24" height="24" fill="#151515"/>
<g id="Diario">
<g clip-path="url(#clip0_0_1)">
<rect x="-329" y="-341" width="402" height="874" fill="#F9FAFB"/>
<rect id="Rectangle 29" x="-9" y="34" width="104" height="42" rx="15" transform="rotate(-90 -9 34)" fill="#A5B4FC" fill-opacity="0.41"/>
<g id="vuesax/linear/gallery">
<g id="vuesax/linear/gallery_2">
<g id="gallery">
<path id="Vector" d="M9 22H15C20 22 22 20 22 15V9C22 4 20 2 15 2H9C4 2 2 4 2 9V15C2 20 4 22 9 22Z" stroke="#292D32" stroke-width="1.5" stroke-linecap="round" stroke-linejoin="round"/>
<path id="Vector_2" d="M9 10C10.1046 10 11 9.10457 11 8C11 6.89543 10.1046 6 9 6C7.89543 6 7 6.89543 7 8C7 9.10457 7.89543 10 9 10Z" stroke="#292D32" stroke-width="1.5" stroke-linecap="round" stroke-linejoin="round"/>
<path id="Vector_3" d="M2.67004 18.9501L7.60004 15.6401C8.39004 15.1101 9.53004 15.1701 10.24 15.7801L10.57 16.0701C11.35 16.7401 12.61 16.7401 13.39 16.0701L17.55 12.5001C18.33 11.8301 19.59 11.8301 20.37 12.5001L22 13.9001" stroke="#292D32" stroke-width="1.5" stroke-linecap="round" stroke-linejoin="round"/>
</g>
</g>
</g>
</g>
<rect x="-328.5" y="-340.5" width="401" height="873" stroke="black"/>
</g>
<defs>
<clipPath id="clip0_0_1">
<rect x="-329" y="-341" width="402" height="874" fill="white"/>
</clipPath>
</defs>
</svg>
