<svg width="20" height="20" viewBox="0 0 20 20" fill="none" xmlns="http://www.w3.org/2000/svg">
<path d="M0.298153 18.5509C0.25115 17.2781 0.298153 15.9901 0.133644 14.7323C-0.0621993 13.2711 -0.0230306 11.8401 0.180647 10.394C0.219815 10.1379 0.211982 9.86675 0.172813 9.61067C-0.0386981 8.13443 -0.070033 6.66573 0.157145 5.18949C0.384324 3.73586 0.274651 2.25962 0.196314 0.798449C0.172813 0.3842 0.25115 0.271222 0.666338 0.248627C1.7709 0.195904 2.87545 0.113054 3.98784 0.105523C4.77122 0.0979908 5.54676 0.241095 6.33013 0.233563C7.88121 0.2185 9.43229 0.113054 10.9834 0.105523C12.2054 0.0979908 13.4275 0.180841 14.6496 0.226032C14.7827 0.233563 14.9081 0.210968 15.0412 0.210968C15.6601 0.195904 16.2868 0.180841 16.9057 0.150713C17.219 0.13565 17.5245 0.0678636 17.8301 0.0452681C18.2139 0.0226727 18.6056 -0.03005 18.9894 0.0226727C19.5613 0.0979908 19.6475 0.2185 19.6867 0.790917C19.7415 1.56669 19.8042 2.34247 19.8277 3.11825C19.8747 4.54176 19.906 5.9728 19.9452 7.39631C19.9687 8.21728 19.9922 9.04578 20 9.86675C20 10.2057 19.9295 10.5446 19.9373 10.876C19.9373 11.9003 20 12.9322 19.9687 13.9565C19.9217 15.4554 19.812 16.9542 19.7258 18.453C19.7023 18.8145 19.6788 19.1761 19.6475 19.5376C19.624 19.7937 19.4673 19.9669 19.201 19.982C18.7544 20.0046 18.3001 20.0046 17.8457 19.9895C17.6499 19.982 17.4619 19.8991 17.266 19.8991C16.0205 19.8991 14.7749 19.9142 13.5293 19.9142C12.2681 19.9142 10.999 19.9067 9.73781 19.8991C8.16322 19.8841 6.58864 19.8765 5.00623 19.8539C3.54915 19.8313 2.09208 19.8012 0.635003 19.7786C0.305986 19.7711 0.157145 19.628 0.204148 19.3041C0.235483 19.0556 0.243316 18.807 0.258984 18.5509C0.266818 18.5585 0.282485 18.5509 0.298153 18.5509ZM19.389 4.73759C19.3655 4.30827 19.3576 4.02206 19.3341 3.73586C19.2636 2.89982 19.1618 2.06379 19.1148 1.22776C19.0678 0.497177 18.9189 0.361604 18.1591 0.504709C18.1199 0.51224 18.0807 0.519772 18.0416 0.534836C16.8273 0.805981 15.5896 0.685472 14.3597 0.753258C13.2473 0.813513 12.1193 0.67794 10.999 0.693004C9.44796 0.715599 7.89688 0.813513 6.3458 0.828576C5.31958 0.836108 4.28552 0.730663 3.25931 0.723131C2.50727 0.715599 1.74739 0.775854 0.995355 0.798449C0.729008 0.805981 0.776011 0.956617 0.776011 1.12985C0.776011 2.41779 0.776011 3.70573 0.744676 4.99367C0.721174 5.94268 0.611502 6.89168 0.603668 7.84069C0.603668 8.34532 0.783844 8.84995 0.783844 9.36212C0.791678 10.0099 0.713341 10.6501 0.642837 11.2978C0.509664 12.5255 0.619336 13.7456 0.721174 14.9733C0.823013 16.2914 0.776011 17.6245 0.768177 18.9501C0.768177 19.1911 0.830847 19.2664 1.06586 19.2514C1.3087 19.2439 1.55938 19.2664 1.80223 19.274C2.6091 19.3041 3.41598 19.3644 4.22285 19.3568C5.57809 19.3418 6.93333 19.2363 8.28856 19.2439C9.5733 19.2439 10.8659 19.3644 12.1506 19.3794C13.1533 19.3945 14.156 19.3192 15.1588 19.3116C15.5426 19.3116 15.9265 19.3945 16.3181 19.4246C16.8822 19.4623 17.454 19.4924 18.0181 19.5301C18.1982 19.5451 18.3784 19.5979 18.5586 19.5979C18.9973 19.5979 19.0835 19.4999 19.0991 19.0857C19.107 18.8748 19.107 18.6564 19.1226 18.4455C19.2166 16.9692 19.3498 15.5005 19.3968 14.0243C19.4281 13.1506 19.3106 12.2694 19.3106 11.3957C19.3106 10.0475 19.3655 8.69932 19.3811 7.35112C19.3968 6.42471 19.389 5.50583 19.389 4.73759Z" fill="black"/>
<path d="M5.50755 4.67734C6.15775 4.77525 6.62777 5.03886 6.98813 5.48324C7.36414 5.94268 7.74016 6.40965 8.09268 6.88416C8.17102 6.9896 8.17102 7.1553 8.21019 7.29841C8.03001 7.25322 7.795 7.26075 7.69316 7.14777C7.34848 6.79378 7.06646 6.38706 6.73745 6.02553C6.53377 5.79205 6.31442 5.55103 6.04808 5.39286C5.80523 5.24976 5.49188 5.07652 5.25687 5.48324C5.2177 5.5435 4.93569 5.53596 4.81818 5.46818C4.76334 5.43805 4.74768 5.14431 4.81818 5.08406C5.02186 4.91836 5.27254 4.81291 5.50755 4.67734Z" fill="black"/>
<path d="M15.4721 5.78449C15.2293 5.71671 14.9942 5.5736 14.8454 5.62633C14.4772 5.7619 14.109 5.94266 13.8192 6.19121C13.4432 6.50755 13.1611 6.92933 12.8008 7.26826C12.7068 7.35864 12.4953 7.33605 12.3386 7.33605C12.3151 7.33605 12.2524 7.14775 12.2759 7.12516C13.0045 6.50755 13.3805 5.51335 14.4145 5.22714C14.6261 5.16689 14.8846 5.15935 15.0961 5.21208C15.3703 5.28739 15.5348 5.48322 15.4721 5.78449Z" fill="black"/>
<path d="M10.7954 15.3951C10.7719 15.4328 10.7249 15.5834 10.6544 15.5985C10.5526 15.6135 10.3959 15.5608 10.3254 15.478C10.2392 15.38 10.2001 15.2294 10.1844 15.1014C10.1374 14.77 9.91804 14.6118 9.60469 14.6043C9.30701 14.5967 9.00149 14.657 8.87615 14.9884C8.78998 15.2068 8.66464 15.4026 8.39829 15.2671C8.13978 15.1315 8.23379 14.9055 8.34346 14.7097C8.60981 14.2352 9.36968 13.9716 9.98071 14.1222C10.4664 14.2427 10.7719 14.6946 10.7954 15.3951Z" fill="black"/>
<path d="M5.54675 8.48841C5.56242 8.36037 5.57025 8.21727 5.60159 8.0817C5.68776 7.62979 5.77393 7.56953 6.29879 7.62979C6.66698 7.66745 6.75315 7.95366 6.72965 8.23233C6.70615 8.48842 6.61997 8.75203 6.47897 8.97045C6.37713 9.12109 6.12645 9.28679 5.97761 9.26419C5.82093 9.23406 5.68776 9.00058 5.57809 8.82735C5.53108 8.7445 5.55459 8.60892 5.54675 8.48841Z" fill="black"/>
<path d="M14.6966 8.58635C14.5869 8.87256 14.4929 9.18136 14.3441 9.44497C14.2814 9.55795 14.0621 9.6634 13.9367 9.64833C13.8114 9.63327 13.6077 9.46004 13.6077 9.34706C13.592 8.9554 13.5999 8.54869 13.6782 8.16456C13.7409 7.86329 14.0386 7.99886 14.2344 8.02899C14.5478 8.07418 14.6809 8.27001 14.6966 8.58635Z" fill="black"/>
<path d="M9.62036 11.697C9.6752 11.2903 9.71437 10.9137 9.7927 10.5522C9.8162 10.4467 9.96505 10.3714 10.0512 10.281C10.1296 10.394 10.2627 10.4994 10.2706 10.6124C10.2862 10.8308 10.2157 11.0568 10.2079 11.2752C10.1922 11.5087 10.2314 11.7422 10.2079 11.9681C10.2001 12.0811 10.1061 12.1941 10.0512 12.3071C9.93371 12.2317 9.78487 12.1866 9.7222 12.0886C9.63603 11.9681 9.64386 11.81 9.62036 11.697Z" fill="black"/>
</svg>
