<svg width="20" height="20" viewBox="0 0 20 20" fill="none" xmlns="http://www.w3.org/2000/svg">
<path d="M3.47493 19.8572C2.44631 19.7971 1.53548 19.7445 0.624639 19.6919C0.310557 19.6769 0.208481 19.5417 0.208481 19.2336C0.232037 17.8511 0.239889 16.461 0.224185 15.071C0.216333 14.6277 0.12996 14.1768 0.0671437 13.7335C-0.0898972 12.614 0.0592917 11.517 0.200629 10.4049C0.239889 10.1119 0.247741 9.80383 0.200629 9.5108C0.0200315 8.31611 -0.058489 7.12894 0.0671437 5.91922C0.161368 5.06265 0.255593 4.20608 0.279149 3.342C0.302705 2.50046 0.247741 1.65141 0.224185 0.802353C0.208481 0.313959 0.263445 0.261363 0.78168 0.216281C2.84677 0.0284366 4.904 0.15617 6.96909 0.216281C8.09194 0.246336 9.21478 0.103574 10.3376 0.0960604C11.7353 0.0885467 13.1329 0.178712 14.5306 0.163684C15.6692 0.15617 16.8077 0.0509779 17.9541 0.00589537C18.3781 -0.00913215 18.81 0.00589537 19.234 0.0359504C19.5245 0.0509779 19.6659 0.246336 19.6894 0.516831C19.7287 0.952629 19.7758 1.38843 19.8072 1.82422C19.87 2.77096 19.9328 3.71769 19.9721 4.66442C20.0035 5.49845 20.0035 6.33999 19.9956 7.18153C19.9799 8.57909 19.925 9.97665 19.925 11.3667C19.925 12.3811 20.0192 13.3954 19.9956 14.4023C19.9485 15.9651 19.8386 17.5205 19.7444 19.0833C19.7051 19.7671 19.5638 19.9023 18.8649 19.9925C18.8257 20 18.7864 20 18.7472 20C17.6714 19.9399 16.5957 19.8572 15.52 19.8122C14.884 19.7896 14.2401 19.8347 13.6041 19.8347C12.4027 19.8347 11.2013 19.8347 9.99998 19.8272C8.35105 19.8122 6.70998 19.7821 5.06105 19.7746C4.48785 19.7746 3.9225 19.8347 3.47493 19.8572ZM19.4617 4.49912C19.4538 4.49912 19.4538 4.49912 19.446 4.49912C19.4381 4.3263 19.4303 4.14598 19.4224 3.97316C19.3361 3.00388 19.234 2.03461 19.1712 1.05782C19.1319 0.49429 19.0612 0.404124 18.4802 0.434179C18.3467 0.441693 18.2211 0.464234 18.0954 0.486776C16.8784 0.749757 15.6299 0.576941 14.405 0.712188C14.3814 0.712188 14.35 0.697161 14.3265 0.697161C13.2272 0.67462 12.1357 0.61451 11.0365 0.637051C9.61523 0.659592 8.18616 0.802353 6.76494 0.779812C4.86474 0.757271 2.9724 0.584455 1.08006 0.742243C0.852348 0.764785 0.74242 0.809867 0.758124 1.04279C0.78168 1.44102 0.82094 1.83925 0.805236 2.23748C0.758124 3.4472 0.687455 4.64188 0.632491 5.83657C0.608935 6.38507 0.553971 6.93358 0.585379 7.47457C0.624639 8.15832 0.78168 8.83456 0.797384 9.51831C0.813088 10.0593 0.679603 10.6078 0.656047 11.1488C0.616787 12.0805 0.601083 13.0197 0.608935 13.9514C0.608935 14.2895 0.734568 14.6201 0.74242 14.9583C0.773828 16.1304 0.773828 17.3026 0.789532 18.4822C0.789532 18.6926 0.711012 19.0007 0.82094 19.0908C0.962277 19.2035 1.2528 19.1434 1.48051 19.1585C1.54333 19.166 1.60614 19.181 1.67681 19.181C2.66617 19.196 3.65553 19.2261 4.64489 19.2186C5.84625 19.2111 7.04761 19.1359 8.24898 19.1509C9.55242 19.166 10.8559 19.2486 12.1593 19.3087C13.4706 19.3688 14.7897 19.0307 16.1089 19.3463C16.2188 19.3688 16.3444 19.3238 16.4622 19.3313C16.9805 19.3538 17.4908 19.3839 18.0091 19.4214C18.2446 19.4365 18.4723 19.4891 18.7079 19.4966C18.9984 19.5041 19.1712 19.3613 19.1633 19.0608C19.1555 18.8354 19.179 18.61 19.1869 18.3845C19.2811 16.9118 19.4067 15.4467 19.4617 13.974C19.4931 12.9897 19.4146 11.9978 19.4067 11.0135C19.4067 10.6003 19.4853 10.1945 19.4853 9.78129C19.4931 8.93224 19.4617 8.08318 19.4538 7.24164C19.4538 6.32496 19.4617 5.40829 19.4617 4.49912Z" fill="black"/>
<path d="M9.47296 16.9793C8.67478 16.9793 7.96695 16.8725 7.45491 16.1744C7.39467 16.0923 7.2516 16.0923 7.16124 16.0184C7.08594 15.9609 6.98052 15.8377 7.00311 15.7884C7.03323 15.6981 7.16124 15.5667 7.21395 15.5749C7.42479 15.6324 7.65822 15.6899 7.80882 15.8377C8.69737 16.7329 10.113 16.7493 10.994 15.8377C11.2049 15.6242 11.3705 15.3614 11.5814 15.156C11.6793 15.0575 11.8449 15.0493 11.9805 15C11.9805 15.156 12.0332 15.3696 11.9654 15.4681C11.3254 16.388 10.5949 17.1353 9.47296 16.9793Z" fill="black"/>
<path d="M4.00058 7.07945C4.01532 6.91796 4.00795 6.74569 4.04481 6.60573C4.14066 6.21815 4.33973 5.97052 4.62726 6.00282C4.90006 6.03512 4.97379 6.35811 4.9959 6.70263C5.00328 6.89642 5.00328 7.10098 4.97379 7.28401C4.90743 7.69313 4.76735 8.04841 4.4282 7.99458C4.05219 7.92998 3.9932 7.53163 4.00058 7.07945Z" fill="black"/>
<path d="M9.0339 10.4921C9.0339 10.3717 9 10.2461 9.05085 10.1309C9.08475 10.0838 9.32203 10.0419 9.47458 10C9.59322 10.0419 9.79661 10.0838 9.81356 10.1257C9.89831 10.3665 9.9661 10.6073 10 10.8534C10 10.9058 9.74576 11 9.66102 11C9.45763 10.9895 9.15254 10.9372 9.10169 10.8848C9 10.7592 9.0339 10.6283 9 10.4974C9.01695 10.4974 9.01695 10.4921 9.0339 10.4921Z" fill="black"/>
<path d="M15 7.09275C14.8299 7.37791 14.6803 7.714 14.4762 7.91768C14.2585 8.13155 14.0272 7.9075 14.0068 7.48994C13.9932 7.22515 14 6.95017 14.0272 6.68538C14.068 6.33912 14.1905 5.9623 14.4354 6.00303C14.5918 6.03359 14.7347 6.36967 14.8639 6.59372C14.9184 6.68538 14.9116 6.84833 14.9388 6.97054C14.9592 7.02146 14.9796 7.05202 15 7.09275Z" fill="black"/>
</svg>
