<svg width="20" height="20" viewBox="0 0 20 20" fill="none" xmlns="http://www.w3.org/2000/svg">
<path d="M0.225494 18.6537C0.225494 17.4502 0.241102 16.2543 0.217691 15.0508C0.209887 14.6146 0.124045 14.1859 0.0616142 13.7496C-0.0866583 12.6364 0.0616142 11.5308 0.202083 10.4251C0.248906 10.0791 0.209887 9.72562 0.170868 9.37963C0.00698746 8.06336 -0.0320316 6.7471 0.139652 5.42331C0.280121 4.33269 0.233298 3.22703 0.25671 2.12889C0.264513 1.65504 0.248906 1.17366 0.217691 0.699805C0.194279 0.353816 0.365963 0.210907 0.693723 0.195864C1.53654 0.158256 2.37935 0.0905629 3.22216 0.0905629C4.88437 0.105606 6.53878 0.188343 8.20099 0.180821C9.72274 0.173299 11.2367 0.0679983 12.7584 0.0379123C13.3359 0.0303908 13.9212 0.158256 14.5065 0.150735C15.6146 0.12817 16.7228 0.0454338 17.8309 0.00782627C18.2913 -0.00721675 18.7518 0.000304759 19.2122 0.0228693C19.5009 0.0379123 19.6414 0.233472 19.6648 0.504246C19.7194 1.16614 19.7741 1.82051 19.8287 2.4824C19.8755 3.06908 19.9457 3.64824 19.9613 4.23492C19.9848 5.28793 19.9691 6.33342 19.977 7.38643C19.977 8.40935 19.9848 9.43228 19.9848 10.4477C19.9848 11.6361 20.0238 12.8245 19.977 14.0054C19.9067 15.8105 19.7741 17.6157 19.6726 19.4284C19.657 19.7367 19.5009 19.9398 19.181 19.9624C18.7439 19.9925 18.3147 20 17.8777 20C17.4173 19.9925 16.9569 19.9549 16.4965 19.9398C16.2233 19.9248 15.9502 19.9173 15.6849 19.9173C14.9981 19.9097 14.3192 19.8947 13.6325 19.8947C12.4229 19.8872 11.2211 19.9173 10.0115 19.8872C8.09174 19.842 6.172 19.7067 4.25226 19.9248C3.52651 20.0075 2.77734 19.8947 2.03598 19.8646C1.63798 19.8496 1.23219 19.8195 0.834192 19.7969C0.31914 19.7744 0.225494 19.6841 0.233298 19.1877C0.233298 18.9996 0.225494 18.8266 0.225494 18.6537ZM19.3995 9.96631C19.3839 9.96631 19.3761 9.96631 19.3605 9.96631C19.3605 8.89073 19.3683 7.82268 19.3605 6.7471C19.3526 5.76178 19.337 4.77646 19.2824 3.79115C19.2356 2.88104 19.1185 1.97094 19.0561 1.06836C19.0249 0.556897 18.9078 0.436552 18.3694 0.489203C18.2133 0.504246 18.065 0.564418 17.9167 0.579461C17.4563 0.62459 16.9959 0.662198 16.5277 0.684762C16.2467 0.699805 15.9658 0.684762 15.6849 0.699805C15.2166 0.72237 14.7562 0.767499 14.288 0.767499C13.6481 0.759977 13.016 0.684762 12.3838 0.692284C10.7997 0.729891 9.21549 0.842714 7.63912 0.842714C6.07055 0.842714 4.50199 0.737413 2.92561 0.707327C2.30911 0.692284 1.68481 0.752456 1.06831 0.797585C0.998072 0.805106 0.881015 0.932972 0.873211 1.00819C0.857603 1.39931 0.888819 1.7829 0.881015 2.17402C0.865407 3.2496 0.904426 4.32517 0.795173 5.39323C0.662508 6.66436 0.631293 7.92046 0.8498 9.19159C0.951249 9.77075 0.841996 10.38 0.810781 10.9742C0.771762 11.7188 0.662508 12.4634 0.670312 13.2156C0.68592 13.9978 0.841996 14.7801 0.865407 15.5623C0.904426 16.5852 0.873211 17.6082 0.873211 18.6311C0.873211 19.1576 0.865407 19.1501 1.42728 19.1425C1.54434 19.1425 1.6614 19.1726 1.77845 19.1726C2.66028 19.2027 3.54212 19.2478 4.42395 19.2403C5.71938 19.2253 7.02262 19.135 8.31805 19.1425C10.0037 19.1501 11.6893 19.2253 13.3749 19.2704C14.2255 19.293 15.084 19.3682 15.9346 19.3155C16.8398 19.2629 17.7138 19.3306 18.5957 19.4885C18.9234 19.5487 19.0951 19.3531 19.0717 19.0147C19.0561 18.8567 19.0717 18.6913 19.0873 18.5258C19.181 17.0064 19.3136 15.4871 19.3683 13.9677C19.3995 13.0351 19.3136 12.0949 19.3058 11.1547C19.2824 10.7636 19.3526 10.3649 19.3995 9.96631Z" fill="black"/>
<path d="M8.96579 15.7127C8.91897 14.9982 9.48865 14.3062 10.2378 14.0881C10.6358 13.9678 11.0962 14.3589 11.1587 14.8478C11.2445 15.5623 10.7451 16.3822 10.0583 16.668C9.62131 16.8485 9.04383 16.5251 8.97359 16.0512C8.95018 15.9384 8.96579 15.8256 8.96579 15.7127ZM10.5344 15.1862C10.5734 15.1562 10.6124 15.1261 10.6514 15.096C10.5422 14.938 10.4485 14.6748 10.308 14.6522C10.0349 14.6071 9.76178 14.7274 9.66033 15.1185C9.96468 15.1411 10.2456 15.1637 10.5344 15.1862Z" fill="black"/>
<path d="M15.0605 6.9577C15.0839 7.5519 14.9512 7.77002 14.5298 7.93549C14.1474 8.08592 13.7338 7.99567 13.4451 7.66472C13.0705 7.23599 12.9066 6.7471 13.0939 6.19803C13.2656 5.70161 13.7963 5.56622 14.2099 5.89716C14.2411 5.91973 14.2645 5.97238 14.2879 5.97238C15.1463 5.93477 14.9512 6.59666 15.0605 6.9577Z" fill="black"/>
<path d="M8.05266 6.717C8.03705 7.18334 7.82635 7.61958 7.33471 7.89036C6.71821 8.23635 5.99245 7.82266 6.00806 7.13069C6.01586 6.88248 6.03927 6.63427 6.10951 6.39358C6.17974 6.14537 6.31241 5.92724 6.65578 5.96485C6.71821 5.97237 6.81185 5.94981 6.85087 5.90468C7.08499 5.65647 7.39714 5.64143 7.62345 5.79938C7.82635 5.94229 7.91999 6.2281 8.04486 6.45375C8.07607 6.5064 8.05266 6.58162 8.05266 6.717Z" fill="black"/>
<path d="M4.44737 6.40862C4.42395 5.82946 4.54882 5.28791 4.96242 4.83662C5.07167 4.7238 5.21214 4.6185 5.36041 4.56585C5.43065 4.53576 5.58672 4.6185 5.64915 4.69371C5.68817 4.73884 5.64915 4.89679 5.59453 4.94192C5.00924 5.40826 4.95461 6.03254 5.00924 6.68691C5.02485 6.91256 5.08728 7.16077 4.79073 7.19085C4.46297 7.22094 4.47858 6.9276 4.44737 6.70948C4.43176 6.6117 4.44737 6.5064 4.44737 6.40862Z" fill="black"/>
<path d="M16.0828 6.40111C16.1296 5.82948 15.9579 5.3481 15.5053 4.95698C15.4429 4.90433 15.4741 4.74638 15.4663 4.64108C15.6068 4.63356 15.8331 4.57339 15.8799 4.63356C16.1452 4.97955 16.434 5.33306 16.5744 5.7317C16.6915 6.07017 16.6369 6.47633 16.6057 6.84488C16.59 6.97275 16.4184 7.09309 16.3169 7.21344C16.2311 7.08557 16.1218 6.95771 16.075 6.8148C16.036 6.68693 16.075 6.5365 16.0828 6.40111Z" fill="black"/>
<path d="M10.2846 10.5831C10.347 10.9065 10.4407 11.3277 10.5031 11.7489C10.5187 11.8316 10.4329 11.9896 10.3548 12.0197C10.1129 12.125 9.86319 11.9294 9.83197 11.621C9.79295 11.245 9.76954 10.8764 9.74613 10.5003C9.73052 10.2822 9.73833 10.0265 10.0505 10.034C10.3392 10.049 10.3782 10.2597 10.2846 10.5831Z" fill="black"/>
<path d="M10.5343 15.1862C10.2534 15.1637 9.97244 15.1411 9.66809 15.111C9.76174 14.7199 10.0349 14.5996 10.3158 14.6447C10.4485 14.6673 10.5421 14.9305 10.6592 15.0885C10.6124 15.1261 10.5733 15.1562 10.5343 15.1862Z" fill="white"/>
<path d="M1.91901 6.44893C1.90021 6.20857 1.84351 6.01588 1.8788 5.82605C1.98464 5.33202 2.12729 4.83913 2.27589 4.34199C2.303 4.25403 2.47413 4.0906 2.50497 4.096C2.63213 4.13546 2.77823 4.18883 2.83445 4.2927C2.92094 4.46411 2.95978 4.66957 2.97102 4.87417C2.99408 5.22123 3.02362 5.57736 2.97686 5.94002C2.95018 6.19228 2.74003 6.45218 2.44014 6.53613C2.28858 6.57584 2.11328 6.4816 1.91901 6.44893ZM2.50393 4.91297C2.21069 5.6232 2.19642 5.95578 2.41655 6.17574C2.71711 5.87868 2.75855 5.38265 2.50393 4.91297Z" fill="black"/>
<path d="M2.50391 4.91299C2.75528 5.37813 2.71709 5.87869 2.41653 6.17575C2.19368 5.96459 2.21392 5.62776 2.50391 4.91299Z" fill="white"/>
</svg>
