<svg width="20" height="20" viewBox="0 0 20 20" fill="none" xmlns="http://www.w3.org/2000/svg">
<path d="M14.5473 6.04741C14.5394 6.4544 14.3196 6.72573 14.0213 6.71066C13.7544 6.69558 13.5738 6.43933 13.5817 6.10017C13.5974 5.73087 13.8564 5.39171 14.1155 5.42939C14.4688 5.48969 14.563 5.74594 14.5473 6.04741Z" fill="black"/>
<path d="M5.3386 6.53464C5.3386 6.94163 5.14233 7.23557 4.89897 7.22803C4.6556 7.22049 4.46719 6.92656 4.47504 6.56479C4.47504 6.45174 4.47504 6.31607 4.53784 6.2407C4.64775 6.11258 4.80476 5.96184 4.95392 5.9543C5.05598 5.94677 5.18944 6.15026 5.28364 6.27839C5.3386 6.36129 5.32289 6.47435 5.3386 6.53464Z" fill="black"/>
<path d="M9.94833 14.6968C9.4773 14.8777 8.96702 15.0209 8.50384 15.2546C8.09561 15.4656 7.9543 15.8801 8.02496 16.3248C8.08776 16.7318 8.28402 17.0483 8.70795 17.2066C9.12403 17.3649 9.51656 17.5382 9.98759 17.3573C10.1367 17.3046 10.3409 17.4101 10.5214 17.4101C11.1966 17.4252 11.6519 17.0559 11.856 16.3625C11.9895 15.8952 11.7069 15.3073 11.1652 15.0661C10.804 14.9079 10.4037 14.8325 9.94833 14.6968Z" fill="black"/>
<path d="M10.1021 10.6244C10.267 10.6697 10.3926 10.6772 10.4554 10.7375C10.5103 10.7902 10.5182 10.9862 10.5025 10.9937C10.2513 11.0691 9.97648 11.1972 9.73312 11.152C9.59966 11.1294 9.4348 10.8129 9.42695 10.6244C9.4034 10.1496 9.4505 9.6748 9.48975 9.19998C9.50545 8.98141 9.60751 8.76284 9.86658 8.83067C9.97648 8.86082 10.0785 9.10953 10.0942 9.26027C10.1256 9.72002 10.1021 10.1647 10.1021 10.6244Z" fill="black"/>
<path d="M13.864 3.99452C15.2143 4.06989 16.3605 5.10997 16.4783 6.30079C16.494 6.42892 16.3212 6.57212 16.2349 6.70778C16.0936 6.60227 15.9052 6.5269 15.8267 6.39124C15.6068 6.0144 15.442 5.59987 15.23 5.22303C15.0024 4.82358 14.6412 4.59747 14.1545 4.57486C14.076 4.57486 13.9818 4.57486 13.9268 4.53718C13.8012 4.45427 13.6992 4.34875 13.5814 4.25078C13.6913 4.14526 13.8091 4.03974 13.864 3.99452Z" fill="black"/>
<path d="M5.18926 3.99452C5.36197 4.02467 5.69954 4.03974 6.00571 4.13772C6.14702 4.18294 6.31974 4.39398 6.31188 4.5221C6.29618 4.75574 6.07637 4.74067 5.85655 4.7256C5.40907 4.68038 4.95374 4.6653 4.50626 4.68038C3.88607 4.70299 3.52495 5.10244 3.25803 5.59233C3.14812 5.78829 3.04607 6.02193 2.7713 5.87873C2.49653 5.74307 2.59074 5.49435 2.69279 5.28332C3.17167 4.33368 4.01953 4.02467 5.18926 3.99452Z" fill="black"/>
<path d="M19.8551 3.05849C19.8865 3.9403 19.9494 5.13112 19.9651 6.32194C19.9808 7.53537 19.918 8.7488 19.9651 9.96976C20.0436 11.967 19.9729 13.9794 19.918 15.9842C19.8865 17.1071 19.7531 18.2377 19.6667 19.3607C19.6432 19.7224 19.4862 19.9787 19.0858 19.9938C18.6697 20.0088 18.2615 19.9938 17.8454 19.9787C17.4293 19.9636 17.0211 19.9335 16.605 19.9184C16.4323 19.9109 16.2596 19.9787 16.0947 19.941C14.7288 19.6546 13.3628 20.0164 11.9889 19.9485C10.725 19.8882 9.46105 19.8053 8.18926 19.7903C7.00383 19.7752 5.81055 19.843 4.62512 19.8656C3.89502 19.8807 3.16492 19.8882 2.43483 19.8732C1.83819 19.8581 1.2337 19.7978 0.637055 19.7677C0.291632 19.7526 0.158173 19.6094 0.189575 19.2627C0.291632 17.7704 0.393689 16.2706 0.158173 14.7933C-0.0694924 13.3463 -0.0302398 11.9218 0.166023 10.4823C0.220977 10.0677 0.166023 9.63061 0.126771 9.20854C-0.0145387 7.9725 -0.0616419 6.744 0.11107 5.50042C0.252379 4.46034 0.220977 3.40518 0.236678 2.35002C0.244529 1.78476 0.197426 1.2195 0.173874 0.654235C0.166023 0.345225 0.354436 0.269857 0.629205 0.254783C2.24641 0.179415 3.85577 0.081436 5.48083 0.179415C6.88608 0.26232 8.29917 0.179415 9.70441 0.134194C11.3295 0.0738991 12.9388 0.081436 14.5639 0.179415C15.7101 0.247246 16.8719 0.0663623 18.026 0.00606762C18.3714 -0.00900606 18.7247 0.00606762 19.0779 0.0286781C19.4783 0.0512886 19.6432 0.292467 19.6667 0.654235C19.7138 1.35516 19.7766 2.04855 19.8551 3.05849ZM19.3841 4.6563C19.392 4.6563 19.4077 4.6563 19.4155 4.6563C19.3998 4.33975 19.392 4.03074 19.3684 3.71419C19.2978 2.83992 19.2036 1.96564 19.1486 1.09137C19.1093 0.488425 18.9602 0.345225 18.3243 0.42813C18.2065 0.443204 18.0966 0.488425 17.9789 0.503499C17.5157 0.54872 17.0525 0.593941 16.5815 0.624088C16.2439 0.646699 15.9063 0.639162 15.5688 0.654235C15.137 0.669309 14.7131 0.706993 14.2813 0.699457C13.1979 0.684383 12.1145 0.624088 11.0312 0.639162C9.5317 0.661772 8.03225 0.767288 6.52495 0.782362C5.38662 0.789899 4.25615 0.676846 3.11782 0.661772C2.46623 0.654235 1.81463 0.752214 1.16304 0.752214C0.809767 0.752214 0.731261 0.827583 0.731261 1.16674C0.731261 2.5912 0.699859 4.0232 0.668457 5.44766C0.644906 6.26164 0.574251 7.06808 0.574251 7.88206C0.574251 8.34181 0.723411 8.79402 0.731261 9.25377C0.746962 9.8341 0.684158 10.422 0.652756 11.0098C0.613504 11.7861 0.519297 12.5624 0.534998 13.3312C0.550699 14.1301 0.70771 14.929 0.739112 15.7279C0.770514 16.7755 0.746962 17.8307 0.731261 18.8858C0.731261 19.0969 0.731261 19.2551 1.02173 19.2551C2.34847 19.2551 3.68306 19.2627 5.0098 19.2778C6.36794 19.2853 7.72608 19.3079 9.08422 19.3154C11.7613 19.3305 14.4304 19.3381 17.1075 19.3607C17.3901 19.3607 17.6727 19.4511 17.9553 19.4888C18.1987 19.5265 18.4421 19.5642 18.6933 19.5717C18.968 19.5792 19.125 19.436 19.1329 19.1496C19.1407 18.9009 19.1565 18.6447 19.1721 18.3959C19.2664 16.9037 19.392 15.4189 19.4391 13.9266C19.4705 12.9544 19.3998 11.9746 19.3841 10.9948C19.3763 10.3315 19.3841 9.66829 19.3841 9.00505C19.3841 7.56551 19.3841 6.1109 19.3841 4.6563Z" fill="black"/>
</svg>
