<svg width="20" height="20" viewBox="0 0 20 20" fill="none" xmlns="http://www.w3.org/2000/svg">
<path d="M0.216806 18.5681C0.216806 17.3633 0.232478 16.1659 0.20897 14.9611C0.201134 14.5771 0.107103 14.193 0.0600869 13.809C-0.0809601 12.702 0.0522509 11.6102 0.193298 10.5183C0.24815 10.1116 0.201134 9.68994 0.154118 9.28331C0.0130712 8.0107 -0.0417804 6.74562 0.146282 5.46548C0.295165 4.47902 0.263821 3.46997 0.287329 2.46845C0.295165 1.89615 0.255985 1.31632 0.216806 0.736495C0.193298 0.405165 0.318673 0.26209 0.655619 0.26209C2.15228 0.2395 3.65679 0.134076 5.14561 0.209379C7.11244 0.307272 9.05575 0.119016 11.0147 0.0888949C12.1745 0.0738344 13.3342 0.194318 14.4939 0.179258C15.6615 0.164197 16.8212 0.0587739 17.9887 0.0060623C18.3649 -0.00899817 18.741 0.0060623 19.1171 0.028653C19.5011 0.0512437 19.6656 0.284681 19.6891 0.623542C19.744 1.30879 19.8067 1.99404 19.8458 2.68683C19.9085 3.89919 19.9555 5.11156 19.9947 6.33146C20.0104 6.72303 19.9869 7.10707 19.9791 7.49865C19.9477 8.80891 19.9007 10.1192 19.8929 11.4294C19.8929 12.2803 20.0104 13.1313 19.9869 13.9822C19.9399 15.4958 19.8223 17.0093 19.7361 18.5154C19.7205 18.8015 19.7126 19.0952 19.697 19.3814C19.6735 19.7202 19.5246 19.9687 19.1406 19.9913C18.7253 20.0064 18.3178 19.9988 17.9025 19.9913C17.448 19.9762 17.0014 19.9461 16.5469 19.9311C16.4137 19.9235 16.2805 19.9838 16.1551 19.9537C14.8152 19.6524 13.4752 20.0139 12.1431 19.9537C10.7875 19.8934 9.43188 19.7955 8.07626 19.7805C6.89303 19.7654 5.70197 19.8558 4.51874 19.8784C3.75082 19.8934 2.98289 19.8859 2.21497 19.8633C1.70564 19.8482 1.20413 19.788 0.694798 19.7654C0.350017 19.7503 0.193298 19.6148 0.240314 19.2759C0.271657 19.0425 0.271657 18.8015 0.287329 18.5606C0.24815 18.5681 0.232478 18.5681 0.216806 18.5681ZM19.4697 5.88718C19.4384 5.88718 19.407 5.88718 19.3679 5.88718C19.3679 5.20192 19.3992 4.50914 19.36 3.82389C19.3052 2.88261 19.1955 1.94886 19.1249 1.01511C19.0858 0.533179 19.0231 0.457876 18.5137 0.465407C18.3805 0.465407 18.2551 0.480467 18.1298 0.510588C16.8368 0.781676 15.5204 0.683783 14.2118 0.721435C13.1853 0.751556 12.1509 0.653663 11.1244 0.676253C9.49456 0.698844 7.86469 0.804267 6.24265 0.819328C5.20047 0.819328 4.15829 0.713904 3.11611 0.698844C2.48139 0.691314 1.83885 0.781677 1.20413 0.781677C0.882861 0.781677 0.78883 0.841918 0.78883 1.16572C0.78883 2.56634 0.765322 3.96697 0.733978 5.36759C0.71047 6.22604 0.632111 7.09201 0.632111 7.95046C0.632111 8.43239 0.796666 8.91433 0.796666 9.39627C0.796666 10.0439 0.694798 10.6839 0.655619 11.3315C0.585095 12.4084 0.592931 13.4777 0.694798 14.5545C0.828009 15.9325 0.780994 17.3256 0.796666 18.7187C0.804502 19.2458 0.78883 19.2383 1.36085 19.2308C1.56459 19.2308 1.77616 19.2759 1.98773 19.2759C2.88886 19.2835 3.78216 19.2985 4.68329 19.2835C5.85869 19.2684 7.03408 19.2006 8.20163 19.2157C9.97256 19.2308 11.7435 19.2985 13.5144 19.3362C14.1648 19.3512 14.8152 19.3286 15.4656 19.3286C15.8809 19.3286 16.2962 19.3362 16.7036 19.3588C17.1268 19.3889 17.5578 19.4416 17.9809 19.4868C18.216 19.5094 18.4432 19.5546 18.6783 19.5621C18.9761 19.5696 19.1328 19.4341 19.1328 19.1253C19.1328 18.8467 19.172 18.5756 19.1876 18.297C19.2738 16.9114 19.3757 15.5259 19.4384 14.1328C19.4697 13.5078 19.4227 12.8752 19.4149 12.2502C19.3914 10.9249 19.3522 9.59958 19.36 8.28179C19.36 7.48359 19.4305 6.68538 19.4697 5.88718Z" fill="black"/>
<path d="M6.25829 5.70646C5.89784 6.12815 6.00754 6.56491 6.06239 7.01672C6.10157 7.30287 5.96052 7.61161 5.60007 7.66432C5.20827 7.72456 5.07506 7.42335 5.00454 7.16732C4.62058 7.41582 4.24445 7.67938 3.85265 7.90529C3.74295 7.96553 3.55489 7.90529 3.40601 7.89776C3.48437 7.76221 3.53138 7.58902 3.64892 7.49866C4.24445 7.00166 4.85566 6.52725 5.4747 6.04532C5.67059 5.89472 5.88216 5.7667 6.0859 5.62363C6.14075 5.65375 6.1956 5.68387 6.25829 5.70646Z" fill="black"/>
<path d="M13.0521 7.36311C12.7935 7.86011 12.5271 8.0333 12.2371 7.8827C11.9472 7.73209 11.9942 7.29534 12.2606 6.74563C12.245 6.53479 12.1431 6.21099 12.245 6.14321C12.5192 5.95496 12.6289 6.30135 12.8248 6.42183C13.2401 6.68539 13.6868 6.90377 14.1099 7.1598C14.2588 7.25016 14.3764 7.37817 14.5096 7.4836C14.3528 7.5589 14.1805 7.71703 14.0394 7.68691C13.7103 7.62667 13.4047 7.4836 13.0521 7.36311Z" fill="black"/>
<path d="M2.26984 6.79082C2.13663 6.67786 1.9564 6.57997 1.96424 6.5122C1.97991 6.39925 2.10528 6.27876 2.20715 6.19593C2.27767 6.13569 2.41872 6.15075 2.48924 6.09051C3.21799 5.42032 4.20532 5.05133 4.81652 4.23807C4.87921 4.15524 5.06727 4.15524 5.20048 4.11758C5.20048 4.25313 5.26317 4.44138 5.19264 4.52422C4.8557 4.8932 4.49525 5.25465 4.10345 5.57845C3.75083 5.87966 3.3512 6.13569 2.96724 6.39925C2.7635 6.53479 2.53626 6.64021 2.26984 6.79082Z" fill="black"/>
<path d="M14.0629 4.28322C14.1177 4.33593 14.2353 4.41124 14.2745 4.50913C14.6427 5.39017 15.3245 5.97753 16.1786 6.41428C16.2256 6.43687 16.2805 6.45946 16.3118 6.49711C16.3823 6.60253 16.445 6.71549 16.5077 6.82844C16.3667 6.83597 16.2021 6.90374 16.0924 6.85103C15.1991 6.48205 14.4468 5.95493 14.0159 5.08143C13.9532 4.96094 13.867 4.84799 13.7965 4.72751C13.6711 4.51666 13.7886 4.27569 14.0629 4.28322Z" fill="black"/>
<path d="M9.73748 11.2261C9.52591 11.5273 9.25165 11.5951 8.96172 11.5349C8.67179 11.4671 8.60911 11.2336 8.62478 10.9701C8.65612 10.4806 8.66396 9.99116 8.71881 9.50922C8.73448 9.37368 8.89904 9.2532 8.99307 9.12518C9.06359 9.26073 9.18897 9.39627 9.18897 9.53182C9.1968 9.93092 9.17329 10.3376 9.14195 10.7367C9.11844 11.0379 9.1968 11.196 9.54158 11.1583C9.5886 11.1508 9.63561 11.1885 9.73748 11.2261Z" fill="black"/>
<path d="M9.00876 14.4189C9.3222 14.5319 9.69049 14.6449 10.0196 14.818C10.1136 14.8708 10.1058 15.1117 10.1371 15.2623C9.98825 15.2473 9.83937 15.2397 9.69832 15.2096C9.33787 15.1418 8.99309 15.044 8.63264 15.0063C8.47592 14.9912 8.31136 15.0967 8.13897 15.1042C8.02927 15.1117 7.90389 15.0515 7.79419 15.0289C7.87255 14.9159 7.9274 14.7427 8.02927 14.6976C8.3192 14.5846 8.6248 14.5244 9.00876 14.4189Z" fill="black"/>
</svg>
